<?xml version="1.0" encoding="UTF-8"?>
<svg version="1.1" viewBox="0 0 2000 2000" width="500" height="500" xmlns="http://www.w3.org/2000/svg">
<path transform="translate(1229,269)" d="m0 0h42l20 2 21 5 19 7 20 11 18 12 18 13 19 13 11 8 40 28 17 12 19 13 18 13 23 16 17 12 20 14 17 12 20 14 17 12 16 11 11 8 16 12 10 8 9 10 5 8 3 9 1 6v1029l-2 16-4 15-8 16-7 9-9 9-11 7-11 5-15 5-15 3-32 3-926 56h-44l-18-3-13-4-16-8-10-7-10-9-12-13-10-13-14-18-10-13-28-36-15-20-12-15-13-17-28-36-12-16-12-15-12-16-11-14-14-18-13-18-13-21-10-19-7-19-5-21-1-7-1-17v-899l3-19 4-13 8-16 9-12 8-8 15-9 13-5 15-4 31-3 337-25 433-32zm-1 82-368 27-410 30-16 3-10 4-5 6-1 8 4 7 16 13 14 11 16 13 16 12 17 14 13 10 16 13 14 11 10 7 15 8 15 5 17 3h44l91-5 738-45 21-2 2-4-3-8-5-5-9-7-18-13-17-12-36-26-17-12-18-13-14-10-19-14-14-9-16-8-15-6-17-4-15-2zm315 251-877 51-42 3-16 4-10 6-8 9-4 9-2 9-1 9v865l2 15 4 12 7 10 9 7 13 6 10 2 11 1h24l171-10 695-40 26-2 15-4 10-6 6-5 7-11 3-7 3-16 1-10v-858l-2-17-4-12-6-9-7-6-9-4-6-1z" fill="#7436E5"/>
<path transform="translate(1093,780)" d="m0 0 15 1 9 4 7 5 6 9 2 7 2 30 1 21 2 5 18 6 21 8 25 8 29 8 21 5 6 2 14 2 6 2 17 2 5 2 19 2h54l24-1h27l9 3 8 6 7 11 3 11v8l-3 11-8 11-9 6-12 3-17 1h-15l11 27 16 39 12 28 11 26 13 32 19 46 13 31 11 27 4 13v11l-4 11-9 11-17 13-21 12-13 6-20 7-17 4-33 4h-17l-22-2-18-2-10-3-8-2-16-6-25-13-13-9-7-6-6-10-2-6v-13l13-40 5-17 17-50 13-40 38-114 5-14-21-2-43-8-29-7-36-10-35-11-8-4 2 38 5 140 7 184 3 81v21l109-4h38l11 4 9 7 5 8 3 10v12l-3 10-6 9-6 5-9 4-37 2-323 12-13-3-10-7-6-9-4-12v-8l2-9 6-10 7-7 9-4 12-2 44-2 82-3 9-1v-28l-3-75-4-112-4-104-4-115v-28l-21 9-16 6-22 8-20 7-8 3-8 2-19 6-14 4-10 2-6 2-12 2-13 2 7 14 16 39 13 31 18 44 17 41 11 26 12 28 11 26 6 18 1 4v11l-5 14-7 8-13 9-11 7-24 13-11 4-18 6-28 5-11 1h-12v2l-4 1-12-3-24-1-21-5-4-2-8-1-16-8-12-5-18-11-10-8-6-8-4-11 2-14 8-25 13-41 46-138 14-41 8-26-4 1-16 1h-16l-10-3-10-6-6-7-4-8-1-5 1-15 4-10 4-6 6-5 9-4 5-1 62-3 28-2 27-4 31-8 36-11 30-11 21-9 25-11 17-8 1-1v-54l3-10 7-9 6-5 8-4zm256 301-9 27-5 16-19 56-19 57-1 9 16 6 20 4 9 1h23l23-4 16-5 12-5 1-5-12-29-11-28-19-43-13-32-5-13-5-12zm-484 19-4 8-16 49-14 41-12 35-8 25v5l12 5 18 5 15 2h20l21-3 24-8 10-4 1-2-6-14-8-20-12-28-13-32-15-36-12-28z" fill="#7436E5"/>
</svg>
